<?xml version="1.0" standalone="no"?>
<!DOCTYPE svg PUBLIC "-//W3C//DTD SVG 20010904//EN"
 "http://www.w3.org/TR/2001/REC-SVG-20010904/DTD/svg10.dtd">
<svg version="1.0" xmlns="http://www.w3.org/2000/svg"
 width="1024.000000pt" height="1024.000000pt" viewBox="0 0 1024.000000 1024.000000"
 preserveAspectRatio="xMidYMid meet">

<g transform="translate(0.000000,1024.000000) scale(0.100000,-0.100000)"
fill="#000000" stroke="none">
<path d="M4995 7123 c-249 -15 -468 -57 -711 -138 -87 -29 -244 -104 -339
-162 -205 -124 -365 -222 -392 -241 -45 -32 -227 -148 -368 -235 -71 -43 -166
-103 -210 -132 -44 -28 -102 -65 -130 -81 -27 -15 -72 -44 -100 -63 -27 -19
-69 -47 -91 -63 -161 -109 -299 -311 -345 -506 -26 -107 -28 -274 -6 -379 42
-196 187 -408 351 -514 103 -68 297 -129 406 -129 63 0 188 29 263 61 81 34
207 114 207 131 0 20 194 -247 216 -298 12 -27 30 -76 39 -109 39 -135 171
-349 294 -479 90 -94 232 -214 316 -268 138 -89 328 -173 465 -206 25 -6 70
-17 100 -24 94 -22 365 -16 488 10 311 68 610 231 796 434 141 153 283 411
352 638 15 52 72 136 158 237 l59 69 71 -48 c139 -92 279 -138 421 -138 140 0
284 47 416 136 183 124 312 344 340 580 32 269 -85 569 -289 740 -72 59 -243
178 -375 259 -45 28 -120 76 -167 106 -75 50 -409 261 -545 346 -161 100 -359
216 -415 242 -92 43 -313 117 -455 152 -238 58 -569 88 -820 72z m443 -344
c139 -15 379 -64 491 -101 99 -33 294 -127 391 -190 30 -19 156 -99 280 -178
124 -79 250 -160 280 -180 30 -21 143 -93 250 -160 238 -149 402 -265 469
-331 103 -101 156 -267 133 -418 -25 -158 -112 -280 -252 -349 -72 -36 -79
-37 -180 -37 -96 1 -111 3 -170 32 -85 40 -177 110 -237 181 -77 90 -148 191
-183 261 -39 78 -120 282 -121 308 -2 24 -13 -35 -34 -177 -62 -423 -147 -647
-318 -839 -25 -29 -27 -37 -27 -124 0 -217 -112 -452 -288 -608 -122 -107
-323 -212 -497 -260 -101 -27 -295 -37 -403 -19 -238 38 -472 160 -647 337
-155 156 -245 377 -245 601 0 41 -5 52 -40 88 -107 112 -212 296 -254 446 -25
88 -56 269 -56 328 0 44 -39 233 -51 245 -5 5 -9 0 -9 -16 0 -40 -68 -246
-107 -323 -88 -177 -243 -353 -368 -418 -122 -63 -226 -73 -338 -33 -155 54
-268 198 -298 381 -16 97 -1 187 48 284 68 135 150 201 607 488 111 69 266
168 346 220 258 168 513 325 615 378 171 89 337 140 560 174 140 21 496 26
653 9z"/>
<path d="M4509 5656 c-99 -26 -163 -107 -164 -206 0 -48 6 -66 36 -116 53 -86
110 -119 203 -119 82 0 125 21 176 85 27 34 32 51 37 115 7 94 -12 151 -68
199 -39 33 -104 57 -151 55 -13 0 -44 -6 -69 -13z"/>
<path d="M5697 5656 c-55 -15 -111 -64 -133 -115 -8 -18 -14 -61 -14 -95 0
-120 79 -213 199 -232 46 -7 127 15 179 49 73 49 104 182 63 272 -45 100 -177
154 -294 121z"/>
<path d="M5094 4870 c-191 -28 -279 -130 -223 -260 23 -54 97 -119 191 -166
26 -13 52 -33 58 -43 5 -11 10 -74 10 -140 l0 -120 -32 -17 c-18 -9 -66 -39
-106 -66 -84 -57 -167 -98 -199 -98 -11 0 -50 13 -85 30 -34 16 -71 30 -81 30
-27 0 -57 -19 -57 -36 0 -50 88 -152 156 -180 18 -8 60 -14 94 -14 52 0 71 6
157 51 54 28 124 69 157 90 l58 39 82 -49 c208 -125 296 -152 372 -113 102 53
161 175 98 204 -23 11 -33 8 -79 -17 -51 -27 -55 -28 -100 -15 -26 7 -86 38
-133 68 -48 29 -104 63 -124 73 l-38 19 0 138 0 137 62 34 c218 120 256 305
78 385 -92 41 -198 53 -316 36z"/>
<path d="M27 103 c-25 -4 -27 -8 -27 -54 0 -48 1 -49 30 -49 30 0 30 1 30 55
0 30 -1 54 -2 54 -2 -1 -15 -4 -31 -6z"/>
</g>
</svg>
